<svg width="25" height="25" viewBox="0 0 25 25" fill="none" xmlns="http://www.w3.org/2000/svg">
<path d="M3.5 2.5V8.5H9.5" stroke="white" stroke-width="2" stroke-linecap="round" stroke-linejoin="round"/>
<path d="M21.5 12.5C21.4984 10.7633 20.9944 9.06418 20.0487 7.60754C19.1031 6.15089 17.7562 4.99896 16.1705 4.29069C14.5848 3.58241 12.8281 3.34804 11.1121 3.61585C9.39623 3.88366 7.79445 4.64221 6.5 5.8L3.5 8.5" stroke="white" stroke-width="2" stroke-linecap="round" stroke-linejoin="round"/>
<path d="M21.5 22.5V16.5H15.5" stroke="white" stroke-width="2" stroke-linecap="round" stroke-linejoin="round"/>
<path d="M3.5 12.5C3.50158 14.2367 4.0056 15.9358 4.95125 17.3925C5.89691 18.8491 7.24382 20.001 8.82951 20.7093C10.4152 21.4176 12.1719 21.652 13.8879 21.3841C15.6038 21.1163 17.2056 20.3578 18.5 19.2L21.5 16.5" stroke="white" stroke-width="2" stroke-linecap="round" stroke-linejoin="round"/>
</svg>
